<svg width="25" height="25" viewBox="0 0 25 25" fill="none" xmlns="http://www.w3.org/2000/svg">
<path d="M22.8448 3.84615H3.44827V22.1154H5.17241V6.73077C5.17241 6.4649 5.36551 6.25 5.60345 6.25H22.8448V3.84615Z" fill="black"/>
<path d="M23.2759 7.21154H6.03448V22.5962V25H25V7.21154H23.2759Z" fill="black"/>
<path d="M8.18967 0.961538H9.05174C9.28967 0.961538 9.48277 0.746635 9.48277 0.480769C9.48277 0.214904 9.28967 0 9.05174 0H8.18967C7.95174 0 7.75864 0.214904 7.75864 0.480769C7.75864 0.746635 7.95174 0.961538 8.18967 0.961538Z" fill="black"/>
<path d="M11.2069 0.961538H12.069C12.3069 0.961538 12.5 0.746635 12.5 0.480769C12.5 0.214904 12.3069 0 12.069 0H11.2069C10.969 0 10.7758 0.214904 10.7758 0.480769C10.7758 0.746635 10.969 0.961538 11.2069 0.961538Z" fill="black"/>
<path d="M0.431034 17.3077C0.193103 17.3077 0 17.5226 0 17.7885V18.75C0 19.0159 0.193103 19.2308 0.431034 19.2308C0.668966 19.2308 0.862069 19.0159 0.862069 18.75V17.7885C0.862069 17.5226 0.668966 17.3077 0.431034 17.3077Z" fill="black"/>
<path d="M20.2586 0.961538C20.2586 1.2274 20.4517 1.44231 20.6896 1.44231C20.9276 1.44231 21.1207 1.2274 21.1207 0.961538V0.480769C21.1207 0.214904 20.9276 0 20.6896 0H20.2586C20.0207 0 19.8276 0.214904 19.8276 0.480769C19.8276 0.746635 20.0207 0.961538 20.2586 0.961538Z" fill="black"/>
<path d="M17.2414 0.961538H18.1034C18.3414 0.961538 18.5345 0.746635 18.5345 0.480769C18.5345 0.214904 18.3414 0 18.1034 0H17.2414C17.0034 0 16.8103 0.214904 16.8103 0.480769C16.8103 0.746635 17.0034 0.961538 17.2414 0.961538Z" fill="black"/>
<path d="M14.2242 0.961538H15.0862C15.3242 0.961538 15.5173 0.746635 15.5173 0.480769C15.5173 0.214904 15.3242 0 15.0862 0H14.2242C13.9862 0 13.7931 0.214904 13.7931 0.480769C13.7931 0.746635 13.9862 0.961538 14.2242 0.961538Z" fill="black"/>
<path d="M5.17243 0.961538H6.0345C6.27243 0.961538 6.46553 0.746635 6.46553 0.480769C6.46553 0.214904 6.27243 0 6.0345 0H5.17243C4.9345 0 4.74139 0.214904 4.74139 0.480769C4.74139 0.746635 4.9345 0.961538 5.17243 0.961538Z" fill="black"/>
<path d="M2.58619 19.2308H1.72413C1.48619 19.2308 1.29309 19.4457 1.29309 19.7115C1.29309 19.9774 1.48619 20.1923 1.72413 20.1923H2.58619C2.82413 20.1923 3.01723 19.9774 3.01723 19.7115C3.01723 19.4457 2.82413 19.2308 2.58619 19.2308Z" fill="black"/>
<path d="M0.431034 0.480769C0.193103 0.480769 0 0.695673 0 0.961538V1.92308C0 2.18894 0.193103 2.40385 0.431034 2.40385C0.668966 2.40385 0.862069 2.18894 0.862069 1.92308V0.961538C0.862069 0.695673 0.668966 0.480769 0.431034 0.480769Z" fill="black"/>
<path d="M3.01722 0H2.15516C1.91722 0 1.72412 0.214904 1.72412 0.480769C1.72412 0.746635 1.91722 0.961538 2.15516 0.961538H3.01722C3.25516 0.961538 3.44826 0.746635 3.44826 0.480769C3.44826 0.214904 3.25516 0 3.01722 0Z" fill="black"/>
<path d="M0.431034 13.9423C0.193103 13.9423 0 14.1572 0 14.4231V15.3846C0 15.6505 0.193103 15.8654 0.431034 15.8654C0.668966 15.8654 0.862069 15.6505 0.862069 15.3846V14.4231C0.862069 14.1572 0.668966 13.9423 0.431034 13.9423Z" fill="black"/>
<path d="M0.431034 3.84615C0.193103 3.84615 0 4.06106 0 4.32692V5.28846C0 5.55433 0.193103 5.76923 0.431034 5.76923C0.668966 5.76923 0.862069 5.55433 0.862069 5.28846V4.32692C0.862069 4.06106 0.668966 3.84615 0.431034 3.84615Z" fill="black"/>
<path d="M0.431034 10.5769C0.193103 10.5769 0 10.7918 0 11.0577V12.0192C0 12.2851 0.193103 12.5 0.431034 12.5C0.668966 12.5 0.862069 12.2851 0.862069 12.0192V11.0577C0.862069 10.7918 0.668966 10.5769 0.431034 10.5769Z" fill="black"/>
<path d="M0.431034 7.21154C0.193103 7.21154 0 7.42644 0 7.69231V8.65385C0 8.91971 0.193103 9.13462 0.431034 9.13462C0.668966 9.13462 0.862069 8.91971 0.862069 8.65385V7.69231C0.862069 7.42644 0.668966 7.21154 0.431034 7.21154Z" fill="black"/>
</svg>
