<svg width="20" height="20" viewBox="0 0 20 20" fill="none" xmlns="http://www.w3.org/2000/svg">
<path fill-rule="evenodd" clip-rule="evenodd" d="M2.5 0.9375C1.63706 0.9375 0.9375 1.63706 0.9375 2.5V17.5C0.9375 18.3629 1.63706 19.0625 2.5 19.0625H17.5C18.3629 19.0625 19.0625 18.3629 19.0625 17.5V2.5C19.0625 1.63706 18.3629 0.9375 17.5 0.9375H2.5ZM10.625 9.375V6.25H9.375V9.375H6.25V10.625H9.375V13.75H10.625V10.625H13.75V9.375H10.625ZM2.5 0H17.5C18.8807 0 20 1.11929 20 2.5V17.5C20 18.8807 18.8807 20 17.5 20H2.5C1.11929 20 0 18.8807 0 17.5V2.5C0 1.11929 1.11929 0 2.5 0Z" fill="black"/>
</svg>
