<svg width="25" height="25" viewBox="0 0 25 25" fill="none" xmlns="http://www.w3.org/2000/svg">
<path d="M16.4026 11.7973C16.5739 11.9819 16.5739 12.2126 16.4454 12.3972L14.0471 15.4893C14.0043 15.397 13.9186 15.3047 13.833 15.2124L10.9636 12.1203C10.8779 12.028 10.7923 11.9819 10.7066 11.8896L13.576 9.30515C13.7473 9.1667 14.0043 9.1667 14.1328 9.3513L16.4026 11.7973ZM24.5824 0.490504C23.9829 -0.155596 23.0407 -0.155596 22.4411 0.444354L14.4325 8.4283C14.561 8.47445 14.6467 8.56675 14.7323 8.65905L17.0021 11.105C17.0878 11.1973 17.1734 11.2896 17.2163 11.4281L24.5824 2.798C25.1392 2.1519 25.1392 1.1366 24.5824 0.490504ZM10.3212 12.7664C10.2784 12.7203 10.1927 12.6741 10.1499 12.628C10.1499 12.628 10.0642 12.5818 9.93576 12.5818C8.65096 12.3049 7.36617 12.5357 6.25268 13.2741C5.05353 14.1509 4.32548 15.6739 4.11135 17.7968C3.89722 20.012 3.25482 21.5811 2.26981 22.4118C1.79871 22.8271 1.15632 23.0579 0.513919 23.0117C0.256959 22.9656 0.0428266 23.1502 0 23.3809C0 23.6117 0.0856531 23.7963 0.256959 23.8886C1.88437 24.5808 3.59743 24.95 5.35332 24.9962C6.80942 25.0423 8.2227 24.6731 9.46467 23.8886C11.606 22.5502 12.8908 20.012 13.2762 16.3661C13.2762 16.32 13.2762 16.2738 13.2762 16.2277C13.2762 16.0892 13.2334 15.9508 13.1478 15.8585L10.3212 12.7664Z" fill="black"/>
</svg>
