<svg width="28" height="25" viewBox="0 0 28 25" fill="none" xmlns="http://www.w3.org/2000/svg">
<path d="M27.1601 0C27.1601 0 26.9968 0.0265641 26.7228 0.110144C26.4471 0.191779 26.0525 0.322332 25.5909 0.531281C25.3512 0.639157 25.0913 0.767442 24.8176 0.91646C24.4567 0.52383 23.921 0.0110145 23.0145 0.215752C20.8637 0.704271 18.9992 1.93626 17.3683 3.34286C16.5437 4.05426 15.7688 4.81781 15.0065 5.59173C14.3779 6.23024 13.8296 6.91961 12.8831 7.09065C12.5221 7.15577 12.2835 7.49235 12.3494 7.84384C12.4081 8.15646 12.6888 8.37545 13.0044 8.37545C13.0441 8.37545 13.0844 8.37188 13.1247 8.36508C15.1045 8.02396 16.4297 5.94743 17.8333 4.70281C19.3938 3.31889 21.2173 1.94501 23.3184 1.47722C23.4361 1.45098 23.5031 1.46037 23.6737 1.62527C23.4994 1.74545 23.3221 1.86985 23.1375 1.99975C16.2284 6.87069 10.0853 12.7993 4.2342 18.8148C3.66059 19.4047 3.1233 19.9331 2.66735 20.4229C2.21772 20.9198 1.87309 21.4032 1.61378 21.8269C1.09516 22.675 0.936838 23.3067 0.936838 23.3067L1.01916 23.3942L0.162577 24.1555C-0.0410713 24.3369 -0.0554031 24.6443 0.130913 24.8422C0.229571 24.9469 0.364558 25 0.499879 25C0.620201 25 0.74119 24.9579 0.837181 24.8727L1.6941 24.1111L1.77643 24.1985C1.77643 24.1985 2.43737 24.1017 3.35261 23.6757C5.51475 22.6688 7.4349 20.8294 9.2884 19.3652C11.4125 17.6868 13.492 15.9549 15.5238 14.1719C17.9159 12.0727 20.2424 9.90223 22.4982 7.66502C24.4487 5.73071 26.7708 3.83753 27.8484 1.30553C27.9583 1.04766 28 0.892163 28 0.892163L27.1601 0Z" fill="black"/>
</svg>
