<svg width="269" height="107" viewBox="0 0 269 107" fill="none" xmlns="http://www.w3.org/2000/svg">
<rect y="16" width="269" height="91" fill="#595862"/>
<rect y="15.7443" width="269" height="22.042" fill="#333030"/>
<path d="M122.844 24.6378C122.787 24.0649 122.544 23.6198 122.113 23.3026C121.682 22.9853 121.097 22.8267 120.358 22.8267C119.857 22.8267 119.433 22.8977 119.087 23.0398C118.742 23.1771 118.476 23.3688 118.292 23.6151C118.112 23.8613 118.022 24.1406 118.022 24.4531C118.012 24.7135 118.067 24.9408 118.185 25.1349C118.308 25.3291 118.476 25.4972 118.689 25.6392C118.903 25.7765 119.149 25.8973 119.428 26.0014C119.707 26.1009 120.006 26.1861 120.323 26.2571L121.63 26.5696C122.264 26.7116 122.847 26.901 123.377 27.1378C123.907 27.3745 124.367 27.6657 124.755 28.0114C125.143 28.357 125.444 28.7642 125.657 29.233C125.875 29.7017 125.986 30.2391 125.991 30.8452C125.986 31.7353 125.759 32.5071 125.309 33.1605C124.864 33.8092 124.22 34.3134 123.377 34.6733C122.539 35.0284 121.528 35.206 120.344 35.206C119.17 35.206 118.147 35.026 117.276 34.6662C116.41 34.3063 115.733 33.7737 115.245 33.0682C114.762 32.358 114.509 31.4796 114.485 30.4332H117.461C117.494 30.9209 117.634 31.3281 117.88 31.6548C118.131 31.9768 118.465 32.2206 118.881 32.3864C119.303 32.5473 119.778 32.6278 120.309 32.6278C120.83 32.6278 121.282 32.5521 121.665 32.4006C122.054 32.2491 122.354 32.0384 122.567 31.7685C122.78 31.4986 122.887 31.1884 122.887 30.8381C122.887 30.5114 122.79 30.2367 122.596 30.0142C122.406 29.7917 122.127 29.6023 121.758 29.446C121.393 29.2898 120.946 29.1477 120.415 29.0199L118.831 28.6222C117.605 28.3239 116.637 27.8575 115.927 27.223C115.216 26.5885 114.864 25.7339 114.868 24.6591C114.864 23.7784 115.098 23.009 115.572 22.3509C116.05 21.6927 116.706 21.179 117.539 20.8097C118.372 20.4403 119.319 20.2557 120.38 20.2557C121.459 20.2557 122.402 20.4403 123.206 20.8097C124.016 21.179 124.646 21.6927 125.096 22.3509C125.546 23.009 125.778 23.7713 125.792 24.6378H122.844ZM128.002 35V24.0909H131.028V35H128.002ZM129.522 22.6847C129.072 22.6847 128.686 22.5355 128.365 22.2372C128.047 21.9342 127.889 21.572 127.889 21.1506C127.889 20.7339 128.047 20.3764 128.365 20.0781C128.686 19.7751 129.072 19.6236 129.522 19.6236C129.972 19.6236 130.356 19.7751 130.673 20.0781C130.995 20.3764 131.156 20.7339 131.156 21.1506C131.156 21.572 130.995 21.9342 130.673 22.2372C130.356 22.5355 129.972 22.6847 129.522 22.6847ZM133.395 35V33.196L138.736 26.5838V26.5057H133.579V24.0909H142.379V26.0582L137.365 32.5071V32.5852H142.564V35H133.395ZM149.536 35.2131C148.414 35.2131 147.448 34.9858 146.639 34.5312C145.834 34.072 145.213 33.4233 144.778 32.5852C144.342 31.7424 144.124 30.7457 144.124 29.5952C144.124 28.473 144.342 27.4882 144.778 26.6406C145.213 25.7931 145.827 25.1326 146.617 24.6591C147.413 24.1856 148.346 23.9489 149.416 23.9489C150.135 23.9489 150.805 24.0649 151.426 24.2969C152.051 24.5241 152.595 24.8674 153.059 25.3267C153.528 25.786 153.892 26.3636 154.153 27.0597C154.413 27.7509 154.544 28.5606 154.544 29.4886V30.3196H145.332V28.4446H151.695C151.695 28.009 151.601 27.6231 151.411 27.2869C151.222 26.9508 150.959 26.688 150.623 26.4986C150.292 26.3045 149.906 26.2074 149.465 26.2074C149.006 26.2074 148.599 26.3139 148.244 26.527C147.893 26.7353 147.619 27.017 147.42 27.3722C147.221 27.7225 147.119 28.1132 147.115 28.544V30.3267C147.115 30.8665 147.214 31.3329 147.413 31.7259C147.616 32.1188 147.903 32.4219 148.272 32.6349C148.642 32.848 149.079 32.9545 149.586 32.9545C149.922 32.9545 150.23 32.9072 150.509 32.8125C150.789 32.7178 151.028 32.5758 151.227 32.3864C151.426 32.197 151.577 31.965 151.681 31.6903L154.48 31.875C154.338 32.5473 154.046 33.1345 153.606 33.6364C153.17 34.1335 152.607 34.5218 151.916 34.8011C151.229 35.0758 150.436 35.2131 149.536 35.2131Z" fill="white"/>
<path d="M171.801 0L184.536 16.5315H159.066L171.801 0Z" fill="#333030"/>
<rect x="22" y="67" width="225" height="5" rx="2.5" fill="#C4C3D0"/>
<path d="M199.622 97.1392C198.873 97.1392 198.235 96.9354 197.708 96.5277C197.181 96.1167 196.778 95.5218 196.5 94.7429C196.222 93.9607 196.082 93.0161 196.082 91.9091C196.082 90.8087 196.222 89.8691 196.5 89.0902C196.782 88.308 197.186 87.7114 197.713 87.3004C198.243 86.8861 198.88 86.679 199.622 86.679C200.364 86.679 200.999 86.8861 201.526 87.3004C202.056 87.7114 202.461 88.308 202.739 89.0902C203.021 89.8691 203.162 90.8087 203.162 91.9091C203.162 93.0161 203.023 93.9607 202.744 94.7429C202.466 95.5218 202.063 96.1167 201.536 96.5277C201.009 96.9354 200.371 97.1392 199.622 97.1392ZM199.622 96.0455C200.364 96.0455 200.941 95.6875 201.352 94.9716C201.763 94.2557 201.969 93.2348 201.969 91.9091C201.969 91.0275 201.874 90.2768 201.685 89.657C201.5 89.0372 201.231 88.5649 200.88 88.2401C200.532 87.9152 200.113 87.7528 199.622 87.7528C198.886 87.7528 198.311 88.1158 197.897 88.8416C197.483 89.5642 197.275 90.5866 197.275 91.9091C197.275 92.7907 197.368 93.5398 197.554 94.1562C197.739 94.7727 198.006 95.2417 198.354 95.5632C198.706 95.8847 199.128 96.0455 199.622 96.0455ZM205.571 97.0795C205.325 97.0795 205.115 96.9917 204.939 96.8161C204.764 96.6404 204.676 96.4299 204.676 96.1847C204.676 95.9394 204.764 95.7289 204.939 95.5533C205.115 95.3776 205.325 95.2898 205.571 95.2898C205.816 95.2898 206.026 95.3776 206.202 95.5533C206.378 95.7289 206.465 95.9394 206.465 96.1847C206.465 96.3471 206.424 96.4962 206.341 96.6321C206.262 96.768 206.154 96.8774 206.018 96.9602C205.885 97.0398 205.736 97.0795 205.571 97.0795ZM208.312 94.9119V93.8977L212.787 86.8182H213.523V88.3892H213.025L209.645 93.7386V93.8182H215.67V94.9119H208.312ZM213.105 97V94.6037V94.1314V86.8182H214.278V97H213.105ZM221.491 97V89.3636H222.624V90.5568H222.724C222.883 90.1491 223.14 89.8326 223.494 89.6072C223.849 89.3786 224.275 89.2642 224.772 89.2642C225.276 89.2642 225.695 89.3786 226.03 89.6072C226.368 89.8326 226.631 90.1491 226.82 90.5568H226.9C227.095 90.1624 227.389 89.8492 227.78 89.6172C228.171 89.3819 228.64 89.2642 229.187 89.2642C229.87 89.2642 230.428 89.478 230.862 89.9055C231.296 90.3298 231.514 90.991 231.514 91.8892V97H230.34V91.8892C230.34 91.3258 230.186 90.9231 229.878 90.6811C229.57 90.4392 229.207 90.3182 228.789 90.3182C228.252 90.3182 227.836 90.4806 227.541 90.8054C227.246 91.1269 227.099 91.5346 227.099 92.0284V97H225.906V91.7699C225.906 91.3357 225.765 90.986 225.483 90.7209C225.201 90.4524 224.838 90.3182 224.394 90.3182C224.089 90.3182 223.804 90.3994 223.539 90.5618C223.277 90.7242 223.065 90.9496 222.903 91.2379C222.744 91.523 222.664 91.8527 222.664 92.2273V97H221.491ZM233.659 97V89.3636H234.792V90.5568H234.892C235.051 90.1491 235.308 89.8326 235.662 89.6072C236.017 89.3786 236.443 89.2642 236.94 89.2642C237.444 89.2642 237.863 89.3786 238.198 89.6072C238.536 89.8326 238.799 90.1491 238.988 90.5568H239.068C239.263 90.1624 239.557 89.8492 239.948 89.6172C240.339 89.3819 240.808 89.2642 241.355 89.2642C242.038 89.2642 242.596 89.478 243.03 89.9055C243.464 90.3298 243.682 90.991 243.682 91.8892V97H242.508V91.8892C242.508 91.3258 242.354 90.9231 242.046 90.6811C241.738 90.4392 241.375 90.3182 240.957 90.3182C240.42 90.3182 240.004 90.4806 239.709 90.8054C239.414 91.1269 239.267 91.5346 239.267 92.0284V97H238.074V91.7699C238.074 91.3357 237.933 90.986 237.651 90.7209C237.369 90.4524 237.006 90.3182 236.562 90.3182C236.257 90.3182 235.972 90.3994 235.707 90.5618C235.445 90.7242 235.233 90.9496 235.071 91.2379C234.912 91.523 234.832 91.8527 234.832 92.2273V97H233.659Z" fill="white"/>
</svg>
